# xmcd
#
# Track frame offsets: 
#        150
#        11352
#        28854
#        40877
#        54117
#        62683
#        76309
#        86784
#        104167
#        116035
#        134673
#        148820
#
# Disc length: 2213 seconds
#
# Revision: 2
# Processed by: cddbd v1.5.2PL0 Copyright (c) Steve Scherf et al.
# Submitted via: ExactAudioCopy v1.3
#
DISCID=a808a30c
DTITLE=Various Artist - Solo Hits Vol.1
DYEAR=1900
DGENRE=Retro
TTITLE0=The Rockorchestra - California Dreaming
TTITLE1=Air Supply - All Out of Love
TTITLE2=Nilsson - Everybody's Talking
TTITLE3=Lynn Anderson - Rose Garden
TTITLE4=The Box Tops - The Letter
TTITLE5=Ben E. King - Stand By Me
TTITLE6=Paul Anka - Diana
TTITLE7=Petula Clark - Downtown
TTITLE8=Tom Jones - Delilah
TTITLE9=Shirley Bassey - All By Myself
TTITLE10=José Feliciano - Light My Fire
TTITLE11=K.C. and The Sunshine Band - Please Don't Go
EXTD=
EXTT0=
EXTT1=
EXTT2=
EXTT3=
EXTT4=
EXTT5=
EXTT6=
EXTT7=
EXTT8=
EXTT9=
EXTT10=
EXTT11=
PLAYORDER=
